<?xml version="1.0" encoding="iso-8859-1"?>
<!-- Generator: Adobe Illustrator 19.0.0, SVG Export Plug-In . SVG Version: 6.00 Build 0)  -->
<svg version="1.1" id="Layer_1" xmlns="http://www.w3.org/2000/svg" xmlns:xlink="http://www.w3.org/1999/xlink" x="0px" y="0px"
	 viewBox="0 0 418.913 418.913" style="enable-background:new 0 0 418.913 418.913;" xml:space="preserve">
<g>
	<g>
		<circle style="fill:#53AEF9;" cx="209.456" cy="209.456" r="204.456"/>
		<path style="fill:#333333;" d="M209.456,418.912C93.961,418.912,0,324.951,0,209.456S93.961,0.001,209.456,0.001
			s209.457,93.961,209.457,209.456S324.951,418.912,209.456,418.912z M209.456,10.001C99.476,10.001,10,99.477,10,209.456
			s89.476,199.456,199.456,199.456c109.981,0,199.457-89.476,199.457-199.456S319.437,10.001,209.456,10.001z"/>
		<circle style="fill:#20505B;" cx="209.456" cy="209.457" r="178.257"/>
		<path style="fill:#333333;" d="M209.456,392.714c-101.048,0-183.257-82.209-183.257-183.257S108.408,26.2,209.456,26.2
			s183.257,82.208,183.257,183.257S310.504,392.714,209.456,392.714z M209.456,36.2c-95.534,0-173.257,77.723-173.257,173.257
			c0,95.535,77.723,173.257,173.257,173.257c95.535,0,173.257-77.723,173.257-173.257S304.991,36.2,209.456,36.2z"/>
	</g>
	<g>
		<path style="fill:#FCBC1D;" d="M315.886,207.475c-13.538-36.316-5.018-27.795-41.332-41.332
			c36.314-13.537,27.794-5.018,41.332-41.332c13.537,36.314,5.017,27.794,41.332,41.332
			C320.903,179.68,329.424,171.16,315.886,207.475z"/>
		<path style="fill:#333333;" d="M357.216,171.145c-0.58,0-1.17-0.102-1.745-0.316c-2.986-1.113-5.944-2.18-9.309-3.358
			c-2.606-0.913-3.979-3.765-3.066-6.372c0.912-2.605,3.764-3.979,6.371-3.067c3.429,1.201,6.446,2.289,9.496,3.426
			c2.588,0.965,3.903,3.844,2.938,6.432C361.152,169.902,359.245,171.145,357.216,171.145z"/>
		<path style="fill:#333333;" d="M315.886,212.475c-2.088,0-3.956-1.297-4.685-3.253c-2.05-5.497-3.61-10.012-4.865-13.641
			c-2.698-7.803-4.052-11.719-6.11-13.778s-5.975-3.413-13.777-6.11c-3.628-1.254-8.144-2.815-13.641-4.865
			c-1.957-0.729-3.254-2.597-3.254-4.685s1.297-3.956,3.254-4.685c5.496-2.049,10.012-3.61,13.64-4.864
			c7.803-2.698,11.72-4.052,13.778-6.111s3.412-5.975,6.11-13.778c1.254-3.628,2.815-8.144,4.865-13.641
			c0.729-1.956,2.597-3.253,4.685-3.253l0,0c2.088,0,3.956,1.297,4.686,3.253c2.049,5.497,3.609,10.013,4.864,13.641
			c3.882,11.229,4.729,13.407,8.394,15.426c2.418,1.333,3.299,4.374,1.966,6.792c-1.332,2.417-4.371,3.299-6.792,1.966
			c-7.149-3.939-8.988-9.26-13.019-20.917c-0.033-0.095-0.065-0.189-0.099-0.285c-0.033,0.096-0.066,0.191-0.099,0.286
			c-6.386,18.468-7.604,19.686-26.072,26.071c-0.095,0.033-0.189,0.065-0.285,0.099c0.097,0.033,0.191,0.066,0.286,0.099
			c18.468,6.385,19.686,7.603,26.071,26.071c0.032,0.095,0.065,0.189,0.099,0.285c0.033-0.096,0.066-0.191,0.099-0.286
			c6.385-18.468,7.603-19.686,26.071-26.071c3.578-1.237,8.03-2.776,13.415-4.783c2.586-0.964,5.466,0.352,6.432,2.938
			c0.964,2.587-0.352,5.467-2.939,6.432c-5.496,2.049-10.012,3.61-13.64,4.864c-7.803,2.698-11.719,4.052-13.777,6.11
			s-3.413,5.975-6.11,13.777c-1.255,3.628-2.815,8.144-4.864,13.641C319.842,211.178,317.974,212.475,315.886,212.475z"/>
	</g>
	<g>
		<path style="fill:#FCBC1D;" d="M249.563,359.498c-15.931-42.736-5.905-32.708-48.639-48.638
			c42.734-15.931,32.708-5.905,48.639-48.639c15.93,42.734,5.904,32.707,48.638,48.639
			C255.468,326.791,265.494,316.765,249.563,359.498z"/>
		<path style="fill:#333333;" d="M249.563,364.498L249.563,364.498c-2.088,0-3.956-1.297-4.686-3.253
			c-2.407-6.458-4.242-11.767-5.717-16.032c-3.219-9.311-4.835-13.984-7.4-16.55c-2.566-2.566-7.239-4.182-16.549-7.4
			c-4.266-1.475-9.574-3.31-16.034-5.718c-1.956-0.729-3.253-2.597-3.253-4.685s1.297-3.956,3.253-4.685
			c6.458-2.407,11.766-4.243,16.031-5.717c9.311-3.219,13.984-4.834,16.551-7.401c2.566-2.566,4.183-7.239,7.401-16.55
			c1.475-4.265,3.31-9.573,5.718-16.032c0.729-1.956,2.597-3.253,4.685-3.253s3.956,1.297,4.685,3.253
			c2.407,6.457,4.242,11.764,5.717,16.029c2.031,5.873,3.498,10.116,4.947,12.975c1.249,2.463,0.266,5.472-2.197,6.721
			c-2.462,1.249-5.473,0.265-6.721-2.198c-1.759-3.468-3.32-7.982-5.48-14.229c-0.301-0.871-0.617-1.786-0.95-2.745
			c-0.333,0.96-0.65,1.876-0.951,2.748c-7.453,21.556-8.579,22.682-30.136,30.135c-0.871,0.301-1.786,0.618-2.746,0.951
			c0.961,0.333,1.877,0.65,2.749,0.952c21.554,7.452,22.681,8.578,30.133,30.134c0.302,0.871,0.618,1.787,0.951,2.747
			c0.334-0.961,0.65-1.877,0.952-2.749c7.452-21.554,8.579-22.681,30.134-30.133c0.872-0.301,1.787-0.618,2.748-0.952
			c-0.962-0.334-1.88-0.651-2.752-0.953c-3.442-1.19-6.416-2.218-8.903-3.172c-2.578-0.989-3.867-3.88-2.879-6.459
			c0.99-2.579,3.883-3.867,6.459-2.878c2.332,0.894,5.094,1.849,8.591,3.058c4.266,1.475,9.575,3.311,16.036,5.719
			c1.956,0.729,3.253,2.597,3.253,4.685s-1.297,3.956-3.254,4.685c-6.458,2.407-11.766,4.243-16.031,5.717
			c-9.31,3.219-13.983,4.834-16.55,7.4s-4.182,7.239-7.4,16.549c-1.475,4.266-3.311,9.574-5.719,16.033
			C253.519,363.201,251.651,364.498,249.563,364.498z"/>
	</g>
	<g>
		<path style="fill:#FCBC1D;" d="M90.096,295.432c-11.464-30.751-4.249-23.536-34.999-34.999
			c30.751-11.463,23.536-4.249,34.999-34.999c11.463,30.75,4.249,23.536,34.999,34.999
			C94.344,271.896,101.559,264.682,90.096,295.432z"/>
		<path style="fill:#333333;" d="M90.096,300.432L90.096,300.432c-2.088,0-3.956-1.297-4.685-3.253
			c-1.738-4.663-3.062-8.492-4.125-11.568c-2.175-6.292-3.373-9.757-4.992-11.376c-1.618-1.618-5.084-2.816-11.375-4.991
			c-3.076-1.063-6.905-2.387-11.568-4.125c-1.956-0.729-3.253-2.597-3.253-4.685s1.297-3.956,3.253-4.685
			c4.663-1.738,8.491-3.062,11.567-4.125c6.292-2.176,9.757-3.374,11.376-4.992c1.619-1.619,2.817-5.084,4.992-11.376
			c1.063-3.076,2.387-6.905,4.125-11.568c0.729-1.956,2.597-3.253,4.685-3.253s3.956,1.297,4.685,3.253
			c1.738,4.663,3.062,8.492,4.125,11.568c2.175,6.292,3.374,9.757,4.992,11.375c1.619,1.619,5.084,2.817,11.376,4.992
			c3.076,1.063,6.904,2.387,11.567,4.125c1.956,0.729,3.253,2.597,3.253,4.685s-1.297,3.956-3.253,4.685
			c-4.663,1.738-8.491,3.062-11.567,4.125c-6.292,2.175-9.757,3.373-11.375,4.991c-1.619,1.619-2.817,5.084-4.992,11.375
			c-1.064,3.077-2.388,6.905-4.126,11.569C94.051,299.135,92.183,300.432,90.096,300.432z M70.026,260.434
			c13.634,4.783,15.286,6.435,20.069,20.069c4.783-13.634,6.435-15.287,20.069-20.069c-13.635-4.784-15.286-6.436-20.069-20.07
			C85.313,253.997,83.659,255.652,70.026,260.434z"/>
	</g>
	<g>
		<path style="fill:#FCBC1D;" d="M127.597,149.992c-13.538-36.316-5.018-27.795-41.332-41.332
			c36.314-13.537,27.794-5.018,41.332-41.332c13.537,36.314,5.017,27.794,41.332,41.332
			C132.614,122.197,141.135,113.677,127.597,149.992z"/>
		<path style="fill:#333333;" d="M127.597,154.991c-2.088,0-3.956-1.297-4.685-3.253c-2.049-5.497-3.61-10.012-4.865-13.641
			c-2.698-7.803-4.052-11.719-6.11-13.778s-5.975-3.413-13.777-6.11c-3.628-1.254-8.144-2.815-13.642-4.865
			c-1.956-0.729-3.253-2.597-3.253-4.685s1.297-3.956,3.253-4.685c5.497-2.049,10.012-3.61,13.64-4.865
			c7.803-2.698,11.719-4.052,13.778-6.11s3.413-5.975,6.111-13.777c1.254-3.628,2.815-8.144,4.865-13.641
			c0.729-1.956,2.598-3.253,4.685-3.253l0,0c2.088,0,3.956,1.297,4.685,3.253c1.726,4.631,3.122,8.609,4.259,11.891
			c0.904,2.609-0.478,5.458-3.086,6.362c-2.181,0.755-4.523-0.084-5.765-1.899c-0.064,0.187-0.128,0.372-0.192,0.555
			c-6.385,18.468-7.604,19.686-26.072,26.071c-0.094,0.033-0.189,0.065-0.285,0.099c0.096,0.033,0.191,0.066,0.286,0.099
			c18.468,6.385,19.686,7.603,26.071,26.071c0.033,0.095,0.065,0.19,0.099,0.286c0.033-0.096,0.066-0.191,0.099-0.286
			c6.385-18.468,7.604-19.686,26.072-26.071c0.094-0.032,0.189-0.065,0.284-0.098c-0.095-0.033-0.189-0.065-0.283-0.098
			c-10.136-3.504-15.224-5.263-19.023-10.119c-1.702-2.175-1.318-5.317,0.857-7.019c2.175-1.702,5.317-1.317,7.019,0.857
			c1.89,2.416,4.969,3.564,14.415,6.83c3.627,1.254,8.143,2.815,13.639,4.864c1.956,0.729,3.253,2.597,3.253,4.685
			s-1.297,3.956-3.253,4.685c-5.497,2.049-10.012,3.61-13.64,4.864c-7.803,2.698-11.719,4.052-13.778,6.11s-3.413,5.975-6.11,13.777
			c-1.254,3.628-2.815,8.144-4.865,13.641C131.553,153.693,129.685,154.991,127.597,154.991z"/>
		<g>
			<path style="fill:#FCBC1D;" d="M172.249,178.165c-2.761,0-5-2.239-5-5v-34.099c0-2.761,2.239-5,5-5s5,2.239,5,5v34.099
				C177.249,175.926,175.01,178.165,172.249,178.165z"/>
			<path style="fill:#FCBC1D;" d="M189.298,161.116h-34.099c-2.761,0-5-2.239-5-5s2.239-5,5-5h34.099c2.761,0,5,2.239,5,5
				S192.059,161.116,189.298,161.116z"/>
		</g>
	</g>
	<g>
		<path style="fill:#FCBC1D;" d="M278.869,126.158c-2.762,0-5-2.239-5-5V99.725c0-2.761,2.238-5,5-5s5,2.239,5,5v21.434
			C283.869,123.92,281.63,126.158,278.869,126.158z"/>
		<path style="fill:#FCBC1D;" d="M289.585,115.442h-21.434c-2.762,0-5-2.239-5-5s2.238-5,5-5h21.434c2.762,0,5,2.239,5,5
			S292.347,115.442,289.585,115.442z"/>
	</g>
	<path style="fill:#FFFFFF;" d="M262.386,363.614c-2.056,0-3.981-1.277-4.711-3.325c-0.926-2.602,0.433-5.461,3.034-6.387
		c4.207-1.498,8.398-3.202,12.456-5.064c2.507-1.153,5.478-0.052,6.63,2.458s0.052,5.478-2.458,6.63
		c-4.325,1.985-8.791,3.801-13.274,5.397C263.509,363.52,262.943,363.614,262.386,363.614z"/>
	<path style="fill:#FFFFFF;" d="M298.701,345.093c-1.594,0-3.16-0.76-4.129-2.174c-1.562-2.278-0.98-5.39,1.298-6.951
		c41.855-28.682,66.844-75.976,66.844-126.511c0-38.138-14.156-74.713-39.861-102.99c-1.857-2.043-1.706-5.206,0.337-7.063
		c2.045-1.858,5.206-1.706,7.063,0.336c27.381,30.121,42.461,69.085,42.461,109.716c0,53.834-26.613,104.212-71.191,134.76
		C300.659,344.809,299.674,345.093,298.701,345.093z"/>
	<path style="fill:#FFFFFF;" d="M299.374,84.293c-0.982,0-1.975-0.289-2.843-0.891c-8.616-5.971-17.862-11.065-27.483-15.142
		c-2.542-1.077-3.729-4.012-2.652-6.554s4.012-3.73,6.555-2.653c10.25,4.343,20.1,9.77,29.276,16.129
		c2.27,1.573,2.835,4.688,1.262,6.958C302.517,83.541,300.958,84.293,299.374,84.293z"/>
</g>
<g>
</g>
<g>
</g>
<g>
</g>
<g>
</g>
<g>
</g>
<g>
</g>
<g>
</g>
<g>
</g>
<g>
</g>
<g>
</g>
<g>
</g>
<g>
</g>
<g>
</g>
<g>
</g>
<g>
</g>
</svg>
